<svg xmlns="http://www.w3.org/2000/svg" xml:space="preserve" viewBox="0 0 512 512" enable-background="new 0 0 512 512" id="marketanalysis">
  <g id="_x34_8_x2C__Market_Analysis_x2C__Trends_x2C__Data_x2C__Insights_x2C__Research_x2C__Evaluation" fill="#595bd4" class="color000000 svgShape">
    <g fill="#595bd4" class="color000000 svgShape">
      <g fill="#595bd4" class="color000000 svgShape">
        <path d="M328.021,1c-99.08,0-181.029,80.143-182.984,179.311c-0.536,27.195,4.758,53.47,15.736,78.096
				c6.364,14.276,3.17,31.338-7.947,42.456l-5.281,5.281c-1.953,1.952-1.953,5.119,0,7.071l3.2,3.2l-28.705,28.719l-9.053-9.053
				c-1.951-1.953-5.12-1.953-7.071,0l-94.202,94.202c-14.286,14.285-14.286,37.527,0,51.812l18.191,18.191
				c14.285,14.286,37.527,14.285,51.812,0l94.202-94.202c1.953-1.952,1.953-5.119,0-7.071l-9.037-9.037l28.705-28.72l3.198,3.198
				c1.951,1.953,5.12,1.953,7.071,0l5.281-5.281c11.119-11.117,28.182-14.311,42.456-7.947
				c24.009,10.703,50.195,16.281,78.094,15.736c99.648-1.964,180.084-84.694,179.307-184.419C510.211,82.099,428.664,1,328.021,1z
				 M74.646,493.215c-10.407,10.407-27.259,10.41-37.67,0l-18.191-18.191c-10.407-10.407-10.41-27.26,0-37.67l44.688-44.687
				l55.861,55.86L74.646,493.215z M143.906,423.954l-55.86-55.86l21.406-21.405c62.86,62.861,20.025,20.025,55.86,55.86
				L143.906,423.954z M331.49,356.964c-25.726,0.505-50.551-4.497-73.824-14.871c-18.256-8.138-39.747-3.843-53.6,10.01
				l-1.745,1.744l-44.168-44.168l1.744-1.745c14.027-14.026,18.05-35.567,10.01-53.6c-10.374-23.272-15.378-48.111-14.871-73.826
				c1.858-94.213,80.154-170.32,174.344-169.501c93.896,0.733,170.881,77.72,171.613,171.616
				C501.729,276.899,425.69,355.107,331.49,356.964z" fill="#595bd4" class="color000000 svgShape"></path>
        <path d="m439.173 101.408 1.804-22.236c.252-3.092-2.34-5.642-5.387-5.389l-21.492 1.74c-24.378-19.369-54.867-30.019-86.096-30.019-76.94 0-138.503 62.455-138.503 138.494 0 77.525 63.663 140.076 141.408 138.466.026 0 .05.008.076.008.033 0 .064-.009.097-.01 74.684-1.638 135.416-62.853 135.416-138.464C466.496 153.922 457.051 125.411 439.173 101.408zM235.973 273.86c-10.986-11.295-19.992-24.742-26.385-39.914l26.385-26.385V273.86zM280.977 303.712c-12.741-4.966-24.54-11.939-35.003-20.614V197.56l34.103-34.103.9.9V303.712zM325.982 312.463c-12.092-.185-23.841-2.017-35.004-5.335V174.359c7.113 7.107 34.306 34.332 35.004 34.969V312.463zM370.986 305.097c-11.055 3.936-22.801 6.397-35.003 7.149V206.06l35.003-35.003V305.097zM415.991 277.553c-10.238 9.635-22.047 17.617-35.003 23.506V161.056l32.262-32.262 2.741 2.743V277.553zM426.952 128.357c-.346-.346-9.819-9.824-10.165-10.17-2.01-2.012-5.174-1.902-7.072-.001-17.933 17.932-64.795 64.794-80.383 80.382-5.921-5.921-38.007-38.007-45.719-45.718-1.951-1.953-5.12-1.953-7.071 0-9.605 9.605-59.394 59.394-70.8 70.8-4.458-13.748-6.621-28.329-6.181-43.423l77.617-77.616 57.31 57.309c1.953 1.955 5.123 1.95 7.071 0l54.945-54.946c1.953-1.952 1.953-5.119 0-7.071L386.4 87.8l44.132-3.574L426.952 128.357zM184.503 302.495c-1.951-1.953-5.12-1.953-7.071 0-1.953 1.952-1.953 5.119 0 7.071l25.002 25.002c1.951 1.953 5.12 1.953 7.071 0 1.953-1.952 1.953-5.119 0-7.071L184.503 302.495z" fill="#595bd4" class="color000000 svgShape"></path>
      </g>
    </g>
  </g>
</svg>
